<svg xmlns="http://www.w3.org/2000/svg" width="500" height="480" viewBox="0 0 500 480"><path fill="#fff" d="M221.89 129.7c-15.04-.06-30.75 1.93-47.03 6.1-65.3 16.74-88.33 67.53-105.72 142.9l-3.29-.6c-5.8-19.7-9.92-33.9-11.08-48.96-9.17 9.9-15.58 23.36-20.84 42.37-1.42-.34-2.7-.67-3.8-.96-7.26 51.37 26.25 100.63 64.83 126.7 37.64 25.43 103.58 30.91 172.1 14.16 48.55-11.87 84.97-19.94 111.35-81.57 7.85-18.34 13.26-44.23 2.17-73.74-29.5-78.45-86.26-126.12-158.7-126.4z"/><path fill="#5c6bc0" d="M208.27 351.72c30-.8 59.7-18.68 76.73-36.84 11.72 3.18 38.47 10.41 48.62 10.72-17.04 27.71-33.16 42-73.34 44.27-13.73.77-45.4-4.99-52-18.15zm171.46-100.04c23.33-27.55 52.36-35.4 87.44-30.41-1.83 21.15-26.95 47.1-26.32 55.05 1.47 6.9 28.51 43.15 34.24 72.5-23.02 5.24-74.8-9.55-93.6-26.64 6.14-21.32 9.25-37.45-1.76-70.5zM151.85 418.56c70.37 10.28 124.5-9.42 153.93-17.55 15.05 10.34 31.15 15.32 45.72 15-17.32 20.36-41.74 28.87-66.28 32.88-45.2 7.39-104.76-1.96-133.37-30.33zm150.4-313.92c29.65 10.27 49.2 32.05 68 53-17.35-2.48-36.07 1.56-50.55 9.73-44.24-38.06-82.86-42.83-142.49-32.95 24.55-35.4 86.85-43 125.04-29.78z"/><path fill="#3949af" d="M128.09 196.7c-6.54 7.17-10.12 18.82-7.13 27.43 3.98 10.94 11.92 17.52 22.37 18.36 14.08-.74 26.13-5.23 28.3-21.56 1.3-13.91-5.7-25.7-17.24-28.53-7.69-2.36-20.67-2.22-26.3 4.3z"/><path fill="#212121" d="M147.98 189.41c-2.5-.23-5.12-.22-7.7.07-5.18.58-10.2 2.37-13.5 6.06-6.89 7.69-10.15 19.5-7.48 29.16 3.48 12.6 14.64 18.58 23.89 19.53 4.5.47 13.22-1.43 19.7-5.2 5.6-3.26 9.84-9.23 10.48-17.87 1.07-14.42-7.97-28.15-17.8-30.7-2.4-.62-5.52-.86-7.59-1.05zm7.48 4.49c12 5.76 14.95 18.67 14.79 26.39-.16 7.81-4.61 12.8-9.25 15.8-4.62 2.98-10.81 4.82-17.66 4.64-9.75-.27-17.02-6.76-20.73-17.18-2.75-7.72.31-19.3 6.77-25.68 3.1-3.05 5.41-4.39 11.28-4.91 2.4-.21 3.56-.38 7.01-.23 4.23.19 6.59.6 7.8 1.17zm109.19-96.38c-34.47-.29-72.39 11.5-88.7 36.95l5.64-1.02c3.9-5.37 11.54-11.5 19.37-16.3-2.86 4.1-6.18 10.06-7.98 14.74l4.79-.73c3.18-7.02 7.2-13.32 12.98-19.2 5.23-2.35 10.95-4.4 17.05-6.09-8.81 7.17-14.52 16.01-19.36 24.45l4.95-.12c5-9.9 14.15-19.96 25.2-26.8 5.29-.97 10.8-1.64 16.47-1.95-9.7 5.5-21.58 16.94-29.26 28.19h5.74c7.83-10.77 20.07-23.54 33.48-28.36 5.5.11 11.12.56 16.83 1.41-14.01 5.78-29.79 17.49-37.42 28.28l5.48 1.31c9.05-12.2 22.55-22.1 41-27.92 1.65.37 3.31.77 4.98 1.2 2.51.66 5.07 1.5 7.67 2.51-15 3.71-33.44 15.63-41.78 26.67l4.8 1.22c12.91-14 30.83-24.28 43.85-24.88 3.49 1.7 7.01 3.68 10.53 5.89-16.2 3.4-34.67 12.26-44.59 22.26l4.53 2.52c10.22-10.87 27-19.04 45.92-20.87 3.3 2.32 6.6 4.82 9.84 7.5-15.13 1.42-34.34 8.61-45.28 18.12l4.23 3.07c12.5-11.37 29.8-16.54 46.04-16.93 2.9 2.59 5.77 5.3 8.57 8.12-15.25.59-34.62 6.22-45.9 14.3l3.96 3.4c12.14-8.6 29.57-13.54 46.35-13.08 2.32 2.5 4.58 5.05 6.77 7.67-10.88-.18-31.27 3.44-44.26 11.4l3.71 3.68c14.47-8.17 34.78-11.67 52.13-9.2-18.8-20.94-41.22-45.51-70.93-55.61-10.94-3.72-23.9-5.69-37.4-5.8zm42.71 303.25l-4.07 1.6c11.07 9.22 26.38 14.7 41.7 16.46-1.95 1.94-4.04 3.75-6.22 5.47-15.35-3.34-29.86-8.28-44.24-19.5l-4.6 2.13c17.77 11.55 31.03 17.19 45.07 20.14-2.05 1.42-4.18 2.76-6.35 4.01-17.46-4.6-28.83-10.46-46.32-22.03l-4.95 1.77c15.1 9.52 30.74 18.55 46.5 22.84-3 1.53-6.07 2.91-9.16 4.16-13.53-4.71-33.23-14.75-44.72-25.3l-4.77 1.23c15.92 13.06 32.34 21.89 44.2 26.07-3.26 1.16-6.51 2.16-9.72 3.05-15.1-6.86-28.6-15.06-43.19-27.99l-5.12.89c13.46 12.4 28.34 22.36 42.99 28.47-4 .94-7.82 1.66-11.43 2.21-14.52-7.43-25.23-15.05-40.05-28.91l-4.95 1.23c13.18 11.68 25.7 21.23 38.87 28.48-3.63.38-7.45.57-10.8.7-13.35-8.37-26.74-16.7-36.73-28.11l-5.13.35c9.55 9.81 21 19.25 36.24 27.92-4.39.08-8.63.03-12.74-.12-12.5-7.98-23.86-16.63-32.34-26.92l-4.77.53c8.4 9.17 17.52 18.12 30.15 26.04-4.49-.3-8.8-.71-12.94-1.24-10.62-7.72-20.03-15.75-26.05-24.62l-4.06.7c6.52 7.68 12.88 15.36 23.93 23.03-4.71-.75-9.17-1.63-13.38-2.62-7.67-6.8-14.62-13.6-18.86-20.4l-4.6-.18c4.5 6.07 9.5 12.24 17.27 19.02-4.77-1.31-9.17-2.75-13.23-4.25-5.58-5.1-10.71-10.16-13.14-15l-4.77-.17c2.43 3.91 5.36 7.82 9.45 11.74-11.31-5.04-19.07-10.35-23.36-14.11l-5.9-.68c25.63 25.42 71.62 35.76 117.25 33.06 36.57-2.17 68.78-14.82 84.9-36.67-16.21-.18-32.47-4.65-45.86-14.48zm-100.42-49.54c9.05 15.97 37.9 20.54 59.23 19.2 41.45-2.63 57.59-26.53 68.52-45.17-16.62-1.87-37.37-7.4-49.8-11.12-.7.93-2.64 2.8-3.42 3.5 21.9 7.86 33.28 9.07 45.75 11-.79 1.54-2.75 4.54-4.18 5.96-11.18-1.1-29.94-5.15-46.05-12.84-.82.8-2.52 2.3-3.38 3 20.07 9.34 32.45 12.2 45.27 14.97-.98 1.33-4.55 4.93-6.26 6.36-14.88-2.71-24.25-6.03-44.79-16.98-.79.66-2.73 1.97-3.93 2.78 18.78 12.48 35.38 17.55 43.3 19.52-2.37 2.28-6.68 4.85-10.6 6.23-10.6-3.73-22.7-9.56-39.57-21.6-.89.6-4.1 2.42-5.34 3.1 15.97 12.47 30.2 18.34 37.38 21.82-2.09 1.05-8.1 2.36-10.96 2.76-9.1-3.1-16.69-8.12-34-20.89-1.2.57-4.33 1.69-5.84 2.2 12.04 10.22 20.39 15.64 29.78 20.28-5.12 1.04-12.48 1.1-14.86.78-5.3-3.2-15.3-9.65-24.85-17.9-1.47.46-4.65 1.2-6.4 1.45 8.61 8.05 16.18 12.56 20.64 15.53-16.43-2.4-27.56-9.82-30.15-14.2-1.23.12-4.1.28-5.49.26zm172.08-100.22l1.2 3.43c23.48-24.57 48.46-34.39 82.18-29.81-.77 3.62-1.87 7.02-3.19 10.25-34.36-3.63-57.18 9.38-77.77 23.49l1.3 4c28.7-17.39 45.02-23.51 73.63-21.37-1.77 3.4-3.72 6.56-5.7 9.54-23.7-.17-43.43 3.93-66.76 16.85l.94 4.24c27.6-12.45 43.96-14.7 61.98-15.49-2.1 2.97-5.87 7.54-7.56 10.14-16.05.37-33.37 3.5-53.75 9.28l.57 3.8c17.73-3.67 33.28-5.74 50.65-6.91-1.96 3.97-.8 5.66 1.4 9.3-15.79 1.4-32.69 3.2-51.6 2.4l.34 4.2c20.5 1.63 33.7.97 54.66-.13 1.7 2.8 4.76 6.11 6.8 9.5-17.89 1.37-42.26-.75-61.66-4.98l-.38 4.2c24.8 5.48 36.05 6.51 66.12 7.7 1.8 3.09 3.6 6.31 5.38 9.64-23.17-.1-50.95-4.41-72-12.84l-.42 4.2c21.9 10.62 50.5 14.8 75.76 15.16 1.57 3.17 3.07 6.39 4.43 9.62-26.8.28-59.43-8.32-80.84-20l-.98 4.05c24.33 13.28 53.67 22.64 83.93 22.02 1.04 2.95 1.94 5.28 2.64 8.18-27.43 2.2-69.15-10.1-87.78-25.55l-1.67 4.44c20.22 18.51 73.55 32.1 96.1 26.38-5.5-31.93-33.16-67.39-34.71-73.37-.06-9.17 23.86-31.41 26.4-56.55-39.34-6.87-71.74 9.56-89.64 31z"/><g fill="#212121"><path d="M384.33 255.38c11.33 30.34 5.8 56.95-2.2 75.8-26.94 63.35-64.1 71.65-113.66 83.85-69.95 17.22-137.24 11.57-175.68-14.56-39.44-26.8-76.23-82.15-65.16-134.34 9.09 2.47 30.47 7.5 39.7 9.15 17.75-77.47 40.36-126.35 107.02-143.55 96.69-24.96 173.63 26.28 209.98 123.65zm-247.9 35.27c-.45 1.2-1.81 5.87-2 6.86-23.82-5.34-89.86-19.21-101.08-21.67-3.1 31.9 9.37 74.73 61.58 116.78 38.34 30.88 113.15 29.4 170.41 15.77 65.87-15.67 89.23-31.82 107.68-76.21 12.9-31.05 12.03-56.73 1.58-82.02-26.67-64.56-86.53-130.62-184.72-114.49-80.54 13.24-99.5 75-115.88 141.23 11.07 2.84 44.88 10.54 62.43 13.75z"/><path d="M52.38 239.24c-6.27 5.55-13 25.96-13.95 30.66.11.04 23.12 6.02 23.12 6.02-3.09-9.56-7.3-26.44-9.17-36.68zm-21.97 31.2c3.27-15.58 15.87-41 27.33-49.42.95 24.4 9.34 43.24 13.2 60.77-9.52-2.81-35.56-9.32-40.53-11.36z"/></g><path fill="#212121" d="M152.64 64.71c.11 4.66-5 6.04-8.17 5.43-2.12-.42-4.79-.97-4.78-5.27 0-2.26 1.53-6.34 5.2-6.72 4.93-.52 7.68 3.48 7.75 6.56zm-15.59-1.85c-1.75 7.28 2.95 10.42 10.9 9.84 4.25-.3 6.56-3.03 7.32-5.63 1.54-5.3-2.45-12.15-10.4-11.74-5.17.27-7.11 4.6-7.82 7.53zm62.4-18.54c.86 4.28-3.42 5.27-4.3 1.14-.21-1.02-.05-3.33 1.32-3.72.95-.27 2.5.13 2.98 2.58zm-5.75 2.04c.72 2.16 2.45 3.76 4.34 3.5 3.47-.46 3.66-3.48 3.34-6.12-.15-1.29-1.51-3.8-3.37-3.87-4.17-.18-5.37 3.3-4.31 6.5zM80.38 166.98c-.47 5.87-7.85 12.67-13.78 12.72-9.96.08-14.17-6.02-13.93-12.28.24-6.26 5.62-15.02 12.75-15.65 7.15-.64 15.5 8.58 14.96 15.2zm-33.13.42c.9 10.83 7.5 17.06 18.77 18 9.47.8 20.31-8.88 20.38-17.91.1-12.26-12.2-21.86-22.05-20.99-11.9 1.05-17.87 11.7-17.1 20.9zm51.05-49.42c.33 8.03 6.3 10.09 11.87 10.36 6.76.33 14.15-7.1 14.07-13.57-.07-6.15-4.6-13.9-14.33-13.15-8.75.66-11.93 8.75-11.62 16.36zm20.2.65c-1.87 3.83-5.23 5.42-8.8 5.4-3.07-.03-7.05-2.86-7.28-6.65-.33-5.23 2.59-10.37 6.92-11 5.1-.75 13.55 3.28 9.17 12.25z"/></svg>