<svg xmlns="http://www.w3.org/2000/svg" width="400" height="400" viewBox="0 0 400 400"><g fill="none" stroke="#eee" stroke-width="5"><path d="M155.36 379.93l-21.4-27.7 27.7-21.4 21.4 27.7zm135.39-265.9l-49.99 12.87m18.56-31.43l12.87 50m-42.3 124.85l3.34 33.84-29.96-16.08zm119.09 16.7l12.55-32.67 32.67 12.55-12.55 32.67zm-182.42-68.37l-28 43.36m-7.68-35.68l43.36 28M22.79 224.04l5.36-33.57 24.9 23.16zM340.47 81.39l11.38-33.1 33.1 11.38-11.38 33.1zM48.02 69.06l-18.8 48.07M14.58 83.69l48.07 18.8m70.23 24.85l26.2-21.68 3.4 33.83zm-50.87-80.5l9.92-33.56 33.57 9.92-9.92 33.56zm-30.95 313.1l-45.6 24.18m10.7-34.9l24.19 45.6M294.36 51.43l-31.78-12.09 27.74-19.66zM230.74 222.8l-15.86-31.2 31.2-15.86 15.86 31.2zm73.54 24.61l-25.25 45.02m-9.89-35.13l45.02 25.25m12.74 77.88l27.6-19.85 1.11 33.99z"/><ellipse cx="352.2" cy="178.37" rx="17.37" ry="17.37"/><ellipse cx="74.01" cy="299.71" rx="17.37" ry="17.37"/><ellipse cx="257.5" cy="366.3" rx="17.37" ry="17.37"/><ellipse cx="99.17" cy="173.19" rx="17.37" ry="17.37"/><ellipse cx="195.35" cy="59.25" rx="17.37" ry="17.37"/></g></svg>