<?xml version="1.0" encoding="UTF-8" standalone="no"?>
<!-- Created with Inkscape (http://www.inkscape.org/) -->

<svg
        xmlns:dc="http://purl.org/dc/elements/1.1/"
        xmlns:cc="http://creativecommons.org/ns#"
        xmlns:rdf="http://www.w3.org/1999/02/22-rdf-syntax-ns#"
        xmlns:svg="http://www.w3.org/2000/svg"
        xmlns="http://www.w3.org/2000/svg"
        xmlns:sodipodi="http://sodipodi.sourceforge.net/DTD/sodipodi-0.dtd"
        xmlns:inkscape="http://www.inkscape.org/namespaces/inkscape"
        width="500"
        height="480"
        viewBox="0 0 500 480"
        id="svg2"
        version="1.1"
        inkscape:version="0.91 r13725"
        sodipodi:docname="chybaryba.svg">
       <metadata
               id="metadata29">
              <rdf:RDF>
                     <cc:Work
                             rdf:about="">
                            <dc:format>image/svg+xml</dc:format>
                            <dc:type
                                    rdf:resource="http://purl.org/dc/dcmitype/StillImage" />
                            <dc:title></dc:title>
                     </cc:Work>
              </rdf:RDF>
       </metadata>
       <defs
               id="defs4" />
       <sodipodi:namedview
               id="base"
               pagecolor="#ffffff"
               bordercolor="#666666"
               borderopacity="1.0"
               inkscape:pageopacity="0.0"
               inkscape:pageshadow="2"
               inkscape:zoom="1"
               inkscape:cx="505.77236"
               inkscape:cy="342.42922"
               inkscape:document-units="px"
               inkscape:current-layer="layer5"
               showgrid="false"
               showguides="true"
               inkscape:guide-bbox="true"
               inkscape:snap-global="false"
               units="px" />
       <g
               inkscape:groupmode="layer"
               id="layer4"
               inkscape:label="Body"
               style="display:inline"
               transform="translate(0,-120)">
              <path
                      style="display:inline;fill:#ffffff;stroke:none;stroke-width:1px;stroke-linecap:butt;stroke-linejoin:miter;stroke-opacity:1"
                      d="m 221.88614,249.70156 c -15.03343,-0.0583 -30.74183,1.92483 -47.02149,6.09766 -65.30474,16.73901 -88.33345,67.53397 -105.726565,142.90625 -0.85781,-0.15262 -2.23313,-0.41866 -3.28711,-0.61328 -5.79153,-19.68975 -9.91784,-33.89774 -11.07812,-48.95508 -9.16874,9.90931 -15.58606,23.36238 -20.841801,42.37305 -1.420434,-0.34129 -2.708363,-0.66621 -3.804687,-0.96289 -7.255912,51.37694 26.252968,100.63215 64.835943,126.70117 37.63956,25.43159 103.57343,30.91375 172.10156,14.16015 48.54734,-11.86874 84.96356,-19.94339 111.34766,-81.57226 7.85043,-18.33727 13.25955,-44.22471 2.16406,-73.73828 C 351.08382,297.65114 294.31994,249.98257 221.88614,249.70156 Z"
                      id="path3366"
                      inkscape:connector-curvature="0" />
              <path
                      d="m 208.27052,471.7198 c 30.00465,-0.80115 59.69124,-18.68161 76.72931,-36.8362 11.72181,3.17882 38.47503,10.40639 48.6202,10.71736 -17.0422,27.70999 -33.16096,42.00122 -73.33572,44.26679 -13.73838,0.77475 -45.40972,-4.98579 -52.01379,-18.14795 z"
                      id="path4747"
                      inkscape:connector-curvature="0"
                      style="display:inline;fill:#5c6bc0" />
              <path
                      d="m 379.73112,371.6807 c 23.33097,-27.55205 52.36153,-35.40311 87.43784,-30.41105 -1.82778,21.14825 -26.94532,47.1079 -26.31767,55.0455 1.47277,6.9027 28.51114,43.15283 34.24185,72.50501 -23.01914,5.24473 -74.80111,-9.54612 -93.59899,-26.63866 6.13882,-21.32141 9.25084,-37.45151 -1.76303,-70.5008 z"
                      id="path4745"
                      inkscape:connector-curvature="0"
                      style="display:inline;fill:#5c6bc0" />
              <path
                      d="m 151.85246,538.55501 c 70.36468,10.28222 124.5005,-9.41752 153.92857,-17.54333 15.05205,10.33432 31.1467,15.31678 45.71429,15 -17.31876,20.36326 -41.73678,28.86941 -66.27234,32.87945 -45.19631,7.38678 -104.76024,-1.96393 -133.37052,-30.33612 z"
                      id="path4743"
                      inkscape:connector-curvature="0"
                      style="display:inline;fill:#5c6bc0" />
              <path
                      d="m 302.25199,224.64225 c 29.6512,10.26833 49.192,32.04501 67.98917,52.99377 -17.34591,-2.47577 -36.06507,1.56394 -50.5385,9.73751 -44.24712,-38.06784 -82.8601,-42.83751 -142.49306,-32.95627 24.54948,-35.39164 86.85279,-43.00023 125.04239,-29.77501 z"
                      id="path4731"
                      inkscape:connector-curvature="0"
                      style="display:inline;fill:#5c6bc0" />
              <path
                      d="m 128.0878,316.69637 c -6.53595,7.17477 -10.11632,18.82689 -7.13223,27.43509 3.98035,10.93947 11.92733,17.5212 22.37051,18.35769 14.08674,-0.73806 26.13388,-5.22439 28.31091,-21.56115 1.29696,-13.90794 -5.70267,-25.68936 -17.25124,-28.52384 -7.68273,-2.36332 -20.66747,-2.22394 -26.29795,4.29221 z"
                      id="path4749"
                      inkscape:connector-curvature="0"
                      style="display:inline;fill:#3949af" />
       </g>
       <g
               inkscape:groupmode="layer"
               id="layer2"
               inkscape:label="Eye and fin contour"
               style="display:inline"
               transform="translate(0,-572.36288)">
              <path
                      d="m 147.9826,761.77601 c -2.49552,-0.23149 -5.12302,-0.22356 -7.71094,0.0684 -5.16855,0.58311 -10.18517,2.3636 -13.49219,6.05664 -6.88747,7.69144 -10.14598,19.50286 -7.47656,29.16602 3.47974,12.59647 14.63599,18.57455 23.883,19.5293 4.49675,0.46429 13.22515,-1.43409 19.71094,-5.20498 5.60147,-3.25674 9.83473,-9.23096 10.47461,-17.86914 1.06828,-14.42132 -7.97271,-28.14584 -17.80832,-30.70076 -2.39321,-0.62166 -5.51365,-0.85375 -7.58054,-1.04548 z m 7.47966,4.48729 c 11.99386,5.76253 14.94642,18.66734 14.78604,26.38517 -0.16243,7.81708 -4.61147,12.80754 -9.25004,15.80132 -4.6198,2.98167 -10.80977,4.82719 -17.65625,4.63867 -9.74756,-0.2684 -17.02072,-6.76037 -20.73437,-17.17969 -2.74838,-7.71109 0.31326,-19.29682 6.77344,-25.67187 3.09798,-3.05716 5.41355,-4.39035 11.28315,-4.91406 2.38854,-0.21312 3.55099,-0.37947 7.00782,-0.22748 4.22778,0.1859 6.58721,0.58995 7.79021,1.16794 z"
                      id="path4187"
                      inkscape:connector-curvature="0"
                      sodipodi:nodetypes="ssssssssssssssssss"
                      style="fill:#212121" />
              <path
                      d="m 264.65296,669.88345 c -34.47793,-0.28793 -72.39153,11.50758 -88.70898,36.94532 l 5.64648,-1.01368 c 3.9076,-5.37088 11.54286,-11.50516 19.37109,-16.29882 -2.86303,4.09037 -6.18602,10.05913 -7.97851,14.73437 l 4.7832,-0.72656 c 3.18737,-7.01696 7.20493,-13.31997 12.98633,-19.20117 5.23055,-2.3477 10.9487,-4.40893 17.04492,-6.08789 -8.8118,7.1728 -14.51732,16.01031 -19.35937,24.45117 l 4.95117,-0.125 c 4.99512,-9.8979 14.15262,-19.95596 25.20703,-26.79297 5.28393,-0.97176 10.78428,-1.64363 16.46289,-1.95703 -9.68996,5.49864 -21.57771,16.94512 -29.25977,28.1875 l 5.74219,0 c 7.82484,-10.76782 20.0715,-23.53337 33.47656,-28.35547 5.49779,0.11195 11.11832,0.55651 16.83203,1.41016 -14.0147,5.78024 -29.78618,17.48944 -37.42187,28.28125 l 5.48242,1.30859 c 9.0511,-12.20837 22.55364,-22.1063 40.99219,-27.91797 1.65602,0.36635 3.31832,0.76484 4.98437,1.20117 2.51567,0.65884 5.07747,1.50412 7.66993,2.50977 -15.00382,3.709 -33.4323,15.62919 -41.77735,26.66601 l 4.79883,1.2168 c 12.91234,-14.00129 30.83077,-24.2756 43.84766,-24.875 3.49021,1.70255 7.0134,3.6751 10.53711,5.88477 -16.19599,3.39831 -34.67466,12.26856 -44.59375,22.25976 l 4.52929,2.5293 c 10.21912,-10.87327 26.99181,-19.0458 45.91602,-20.87695 3.30758,2.31794 6.59719,4.82312 9.8457,7.50195 -15.12811,1.41655 -34.34456,8.61259 -45.28515,18.12305 l 4.23242,3.06836 c 12.50911,-11.37124 29.79263,-16.54069 46.03711,-16.93555 2.91193,2.59011 5.77618,5.30397 8.57226,8.12695 -15.25034,0.58288 -34.61693,6.21286 -45.90429,14.29297 l 3.96679,3.40625 c 12.13938,-8.60596 29.56896,-13.54405 46.35157,-13.08008 2.31392,2.49556 4.57759,5.05112 6.76367,7.67188 -10.87849,-0.18582 -31.26083,3.43761 -44.25391,11.39258 l 3.70898,3.68359 c 14.47343,-8.17357 34.77909,-11.67108 52.125,-9.19531 -18.79716,-20.94876 -41.21725,-45.51788 -70.92578,-55.61914 -10.93959,-3.7196 -23.90512,-5.68226 -37.39648,-5.79493 z"
                      id="path4731-1"
                      inkscape:connector-curvature="0"
                      sodipodi:nodetypes="sccccccccccccccccccsccccccccccccccccccccss"
                      style="fill:#212121" />
              <path
                      d="m 307.35804,973.13541 -4.06446,1.60351 c 11.06266,9.21521 26.37206,14.69629 41.69532,16.45703 -1.95084,1.93487 -4.03673,3.7517 -6.22266,5.46289 -15.34737,-3.33867 -29.85175,-8.27853 -44.23437,-19.48828 l -4.59766,2.1211 c 17.76813,11.55417 31.0281,17.18751 45.06836,20.14062 -2.05244,1.42252 -4.17887,2.75622 -6.35547,4.01172 -17.45984,-4.59608 -28.82768,-10.45628 -46.31445,-22.0293 l -4.94922,1.76758 c 15.08986,9.52024 30.73849,18.54672 46.5,22.84372 -3.002,1.5261 -6.07187,2.9076 -9.16797,4.1582 -13.52559,-4.7129 -33.22378,-14.74658 -44.71289,-25.30856 l -4.77344,1.23828 c 15.91716,13.06097 32.33897,21.88768 44.20313,26.07228 -3.26064,1.1557 -6.51405,2.1604 -9.71875,3.043 -15.09681,-6.8592 -28.61056,-15.0546 -43.18946,-27.98246 l -5.12695,0.88476 c 13.4586,12.4 28.34602,22.362 42.99023,28.4668 -3.98992,0.9417 -7.8192,1.6655 -11.42773,2.2168 -14.52397,-7.4329 -25.23011,-15.0572 -40.04688,-28.91602 l -4.95117,1.23828 c 13.18055,11.68004 25.6918,21.22404 38.86524,28.47854 -3.62276,0.3785 -7.4431,0.5637 -10.79102,0.6972 -13.35168,-8.3659 -26.74194,-16.6971 -36.73633,-28.11519 l -5.125,0.35351 c 9.54691,9.81488 20.99437,19.24948 36.23438,27.92578 -4.38864,0.077 -8.62498,0.024 -12.73633,-0.1211 -12.50903,-7.9853 -23.86607,-16.6296 -32.33789,-26.92186 l -4.77344,0.53124 c 8.39601,9.16542 17.52223,18.11592 30.14844,26.03712 -4.48499,-0.2967 -8.80403,-0.7093 -12.93555,-1.2363 -10.62779,-7.722 -20.03101,-15.751 -26.05078,-24.62503 l -4.0664,0.70703 c 6.52792,7.6747 12.88167,15.3507 23.92968,23.0254 -4.70702,-0.7503 -9.16383,-1.6353 -13.375,-2.625 -7.67017,-6.8003 -14.62481,-13.6002 -18.86328,-20.4004 l -4.5957,-0.17578 c 4.49166,6.06778 9.48798,12.24368 17.26562,19.01558 -4.77161,-1.3071 -9.16991,-2.7428 -13.23242,-4.2461 -5.57876,-5.0969 -10.71073,-10.15598 -13.13672,-14.99019 l -4.77343,-0.17773 c 2.43766,3.91154 5.36056,7.82282 9.45703,11.73432 -11.31494,-5.0335 -19.07478,-10.34906 -23.36328,-14.10542 l -5.90235,-0.67773 c 25.62817,25.41265 71.62468,35.76085 117.25781,33.05665 36.56687,-2.167 68.77025,-14.824 84.90235,-36.66602 -16.21694,-0.18571 -32.4724,-4.65504 -45.86914,-14.48047 z"
                      id="path4216"
                      inkscape:connector-curvature="0"
                      sodipodi:nodetypes="cccccccccccccccccccccccccccccccccccccccccccccscc"
                      style="fill:#212121" />
              <path
                      d="m 206.94175,923.59778 c 9.0485,15.96985 37.89183,20.53887 59.22681,19.1881 41.45419,-2.62455 57.59159,-26.52053 68.52603,-45.16259 -16.6262,-1.86771 -37.36964,-7.39174 -49.80716,-11.11602 -0.69481,0.92853 -2.642,2.80278 -3.41926,3.50186 21.8984,7.85492 33.28165,9.06818 45.75587,11.00282 -0.79169,1.53094 -2.75578,4.53413 -4.18453,5.95235 -11.17713,-1.09642 -29.93502,-5.15249 -46.0456,-12.84562 -0.82749,0.79685 -2.52117,2.29823 -3.38801,2.99933 20.07405,9.34233 32.45307,12.20713 45.27711,14.97148 -0.98508,1.32923 -4.55279,4.93838 -6.26533,6.35871 -14.87917,-2.70896 -24.24971,-6.0297 -44.78329,-16.97722 -0.78941,0.65767 -2.73287,1.97335 -3.93106,2.77979 18.77204,12.48165 35.3758,17.54977 43.30019,19.52258 -2.37312,2.28039 -6.67918,4.85376 -10.60318,6.23212 -10.60326,-3.73156 -22.69753,-9.55864 -39.5701,-21.60944 -0.88819,0.59982 -4.10054,2.42709 -5.34481,3.11463 15.97153,12.45743 30.21141,18.32965 37.38618,21.81695 -2.08816,1.04697 -8.10123,2.35431 -10.96355,2.75071 -9.08896,-3.09624 -16.68411,-8.11368 -33.9914,-20.8808 -1.21168,0.56578 -4.33667,1.68438 -5.85008,2.19637 12.04146,10.217 20.38853,15.64357 29.7788,20.27474 -5.11068,1.04012 -12.47617,1.10243 -14.85547,0.78831 -5.30889,-3.19668 -15.29747,-9.65808 -24.84711,-17.90979 -1.47697,0.46569 -4.65141,1.21374 -6.40352,1.45231 8.61342,8.05629 16.18438,12.5649 20.64117,15.53262 -16.43473,-2.39248 -27.55736,-9.82347 -30.15391,-14.19464 -1.22556,0.12017 -4.09044,0.27681 -5.48479,0.26031 z"
                      id="path4818"
                      inkscape:connector-curvature="0"
                      sodipodi:nodetypes="csccccccccccccccccccccccccccc"
                      style="fill:#212121" />
              <path
                      d="m 379.02103,823.37422 1.19052,3.43306 c 23.49147,-24.5701 48.46596,-34.39418 82.1836,-29.8164 -0.76565,3.61776 -1.86707,7.02372 -3.18164,10.24804 -34.36101,-3.62355 -57.18563,9.38296 -77.77149,23.49414 l 1.29492,4.00391 c 28.70721,-17.39163 45.02172,-23.51484 73.63282,-21.36914 -1.76673,3.39765 -3.72134,6.5565 -5.69922,9.53906 -23.70857,-0.17457 -43.43291,3.9281 -66.75977,16.84375 l 0.9375,4.23828 c 27.59333,-12.4475 43.95944,-14.69164 61.98242,-15.48242 -2.09642,2.96794 -5.8665,7.5324 -7.55878,10.13691 -16.05093,0.37403 -33.36881,3.50519 -53.74786,9.28301 l 0.5625,3.78711 c 17.7333,-3.65746 33.28546,-5.73046 50.65809,-6.90502 -1.95969,3.97586 -0.80309,5.66098 1.4043,9.29849 -15.79928,1.4128 -32.69933,3.21478 -51.60145,2.40731 l 0.33594,4.19336 c 20.50098,1.63101 33.69675,0.97902 54.65514,-0.12308 1.70112,2.79083 4.75714,6.11002 6.80189,9.50394 -17.88743,1.36536 -42.25788,-0.7507 -61.66211,-4.98242 l -0.37891,4.19336 c 24.79372,5.48385 36.05106,6.51513 66.11914,7.69531 1.79521,3.09588 3.60384,6.31936 5.38086,9.65039 -23.16787,-0.0928 -50.95279,-4.41699 -72.0039,-12.83984 l -0.41211,4.19531 c 21.90016,10.62595 50.50529,14.79995 75.75586,15.16211 1.56593,3.17316 3.06836,6.38728 4.42773,9.62305 -26.78911,0.27261 -59.42254,-8.32129 -80.83984,-19.99414 l -0.98047,4.04492 c 24.33362,13.27203 53.67263,22.63954 83.93547,22.01256 1.03637,2.95869 1.93364,5.28372 2.63868,8.18012 -27.4349,2.21074 -69.15419,-10.09817 -87.78447,-25.54984 l -1.66663,4.43919 c 20.22275,18.51741 73.54681,32.1017 96.09765,26.38867 -5.49641,-31.92946 -33.15511,-67.38988 -34.71093,-73.3789 -0.0517,-9.16066 23.85857,-31.40508 26.4121,-56.54493 -39.34789,-6.86983 -71.74475,9.56131 -89.64755,30.99077 z"
                      id="path4502"
                      inkscape:connector-curvature="0"
                      sodipodi:nodetypes="cccccccccccccccccccccccccccccccccccccc"
                      style="fill:#212121" />
       </g>
       <g
               inkscape:groupmode="layer"
               id="layer3"
               inkscape:label="Contour"
               style="display:inline"
               transform="translate(0,-572.36288)">
              <path
                      d="m 384.33357,827.74741 c 11.3258,30.33746 5.80576,56.94617 -2.20761,75.79534 -26.93174,63.34927 -64.10401,71.65003 -113.65903,83.8501 C 198.51641,1004.6141 131.22805,998.95798 92.79328,972.83723 53.348865,946.03031 16.557492,890.68435 27.630732,838.48859 c 9.085553,2.47593 30.468823,7.50416 39.693823,9.15697 17.75413,-77.47634 40.367645,-126.35044 107.027895,-143.55673 96.68401,-24.956 173.62923,26.28583 209.98112,123.65858 z m -247.90333,35.27 c -0.45051,1.20352 -1.81054,5.86821 -1.99881,6.85076 -23.82304,-5.33251 -89.857505,-19.20952 -101.085385,-21.66279 -3.088763,31.89435 9.3745,74.73118 61.583055,116.77713 38.34043,30.87731 113.14902,29.40262 170.41131,15.77385 65.87053,-15.67758 89.22709,-31.81974 107.67572,-76.21813 12.89916,-31.04305 12.03517,-56.72485 1.58712,-82.01089 C 347.92644,757.96498 288.07495,691.898 189.8837,708.03788 109.3419,721.27669 90.37223,783.02671 73.995315,849.26742 c 11.07143,2.84039 44.888705,10.53868 62.434925,13.74999 z"
                      id="path4763"
                      inkscape:connector-curvature="0"
                      sodipodi:nodetypes="ssssccsscccssssscc"
                      style="fill:#212121" />
              <path
                      d="m 52.381965,811.60731 c -6.26708,5.54988 -13.00861,25.95998 -13.94936,30.65608 0.11093,0.0391 23.11337,6.0223 23.11337,6.0223 -3.0816,-9.56124 -7.28888,-26.44045 -9.16401,-36.67838 z m -21.970823,31.18846 c 3.266933,-15.57349 15.872463,-40.99526 27.326443,-49.41298 0.94932,24.39147 9.34498,43.23727 13.21046,60.76745 -9.52441,-2.81001 -35.56725,-9.31993 -40.536903,-11.35447 z"
                      id="path4607"
                      inkscape:connector-curvature="0"
                      sodipodi:nodetypes="cccccccc"
                      style="fill:#212121" />
       </g>
       <g
               inkscape:groupmode="layer"
               id="layer5"
               inkscape:label="Bubbles"
               style="display:inline"
               transform="translate(0,-572.36288)">
              <path
                      id="path4207"
                      d="m 152.64145,637.07296 c 0.11105,4.65635 -5.00984,6.03994 -8.17088,5.42571 -2.12358,-0.41263 -4.78737,-0.96978 -4.78137,-5.26154 0.003,-2.25997 1.5334,-6.34697 5.19389,-6.72803 4.94022,-0.51429 7.68476,3.4795 7.75836,6.56386 z m -15.59008,-1.8472 c -1.75428,7.27793 2.94875,10.41931 10.90532,9.83814 4.24541,-0.31009 6.54893,-3.03293 7.31015,-5.63587 1.5475,-5.29155 -2.44602,-12.14892 -10.40485,-11.73497 -5.16235,0.2685 -7.1053,4.60653 -7.81062,7.5327 z"
                      inkscape:connector-curvature="0"
                      sodipodi:nodetypes="ssssssssss"
                      style="fill:#212121" />
              <path
                      id="path4203"
                      d="m 199.4548,616.6804 c 0.85694,4.27977 -3.42608,5.2715 -4.29997,1.13758 -0.21533,-1.01861 -0.0597,-3.329 1.31643,-3.7192 0.94821,-0.26887 2.49354,0.1344 2.98354,2.58162 z m -5.75465,2.04679 c 0.71695,2.1587 2.45387,3.75721 4.34019,3.50201 3.47313,-0.46986 3.65924,-3.48561 3.34382,-6.13003 -0.15307,-1.28327 -1.5163,-3.78776 -3.37868,-3.86676 -4.16477,-0.17666 -5.36599,3.30114 -4.30533,6.49478 z"
                      inkscape:connector-curvature="0"
                      sodipodi:nodetypes="sssssssss"
                      style="fill:#212121" />
              <path
                      id="path4193"
                      d="m 80.383215,739.3386 c -0.47289,5.87038 -7.85424,12.67111 -13.78505,12.72211 -9.95882,0.0857 -14.16328,-6.01726 -13.92697,-12.27821 0.23632,-6.26095 5.61783,-15.01555 12.74616,-15.65008 7.14855,-0.63634 15.49992,8.57649 14.96586,15.20618 z m -33.135,0.42564 c 0.90893,10.83186 7.49453,17.05909 18.76981,17.99966 9.47482,0.79037 20.31256,-8.88303 20.3837,-17.91151 0.0966,-12.25589 -12.19332,-21.85488 -22.05495,-20.98626 -11.90604,1.0487 -17.87127,11.68958 -17.09856,20.89811 z"
                      inkscape:connector-curvature="0"
                      sodipodi:nodetypes="ssssssssss"
                      style="fill:#212121" />
              <path
                      id="path4769"
                      d="m 98.29387,690.34232 c 0.33201,8.03168 6.3007,10.08867 11.87839,10.36149 6.76041,0.33066 14.14848,-7.09383 14.06992,-13.5744 -0.0745,-6.14309 -4.59422,-13.8894 -14.32996,-13.14901 -8.74776,0.66527 -11.93294,8.75182 -11.61835,16.36192 z m 20.21134,0.64962 c -1.87331,3.83106 -5.23264,5.42337 -8.80134,5.39317 -3.07699,-0.0261 -7.05548,-2.85621 -7.2877,-6.64047 -0.32118,-5.23371 2.5909,-10.36958 6.9189,-11.00507 5.09973,-0.7488 13.55718,3.28054 9.17014,12.25237 z"
                      inkscape:connector-curvature="0"
                      sodipodi:nodetypes="ssssssssss"
                      style="fill:#212121" />
       </g>
       <g
               inkscape:groupmode="layer"
               id="layer1"
               inkscape:label="Colors"
               style="display:none"
               transform="translate(0,-572.36288)">
              <rect
                      id="rect3346-0"
                      width="100"
                      height="100"
                      x="650"
                      y="450"
                      style="fill:#212121" />
              <rect
                      id="rect4148-7"
                      width="100"
                      height="100"
                      x="650"
                      y="570"
                      style="fill:#3949af" />
              <rect
                      id="rect4150-7"
                      width="100"
                      height="100"
                      x="650"
                      y="690"
                      style="fill:#5c6bc0" />
       </g>
</svg>
